The Artist (2011) PG-13 

Hollywood, 1927: As silent movie star George Valentin wonders if the arrival 
of talking pictures will cause him to fade into oblivion, he sparks with Peppy Miller, a young dancer set for a big break.


Russian external subtitles!

Russian external subtitles!

Russian external subtitles!


General
Complete name                    : Artist.2011.DVDScr.sub.avi
Format                           : AVI
Format/Info                      : Audio Video Interleave
File size                        : 1.45 GiB
Duration                         : 1h 36mn
Overall bit rate                 : 2 165 Kbps
Movie name                       : The Artist
Director                         : Michel Hazanavicius
Genre                            : Drama / Romance
Writing application              : VirtualDubMod 1.5.10.3 | www.virtualdub-fr.org || (build 2550/release)
Original source form/Name        : Movie
Copyright                        : http://upload.by/
Comment                          : by demon1

Video
ID                               : 0
Format                           : MPEG-4 Visual
Format profile                   : Advanced Simple@L5
Format settings, BVOP            : 1
Format settings, QPel            : No
Format settings, GMC             : No warppoints
Format settings, Matrix          : Custom
Codec ID                         : XVID
Codec ID/Hint                    : XviD
Duration                         : 1h 36mn
Bit rate                         : 1 963 Kbps
Width                            : 704 pixels
Height                           : 528 pixels
Display aspect ratio             : 4:3
Frame rate                       : 25.000 fps
Color space                      : YUV
Chroma subsampling               : 4:2:0
Bit depth                        : 8 bits
Scan type                        : Progressive
Compression mode                 : Lossy
Bits/(Pixel*Frame)               : 0.211
Stream size                      : 1.32 GiB (91%)
Writing library                  : XviD 64

Audio
ID                               : 1
Format                           : AC-3
Format/Info                      : Audio Coding 3
Mode extension                   : CM (complete main)
Codec ID                         : 2000
Duration                         : 1h 36mn
Bit rate mode                    : Constant
Bit rate                         : 192 Kbps
Channel(s)                       : 2 channels
Channel positions                : Front: L R
Sampling rate                    : 48.0 KHz
Bit depth                        : 16 bits
Compression mode                 : Lossy
Stream size                      : 132 MiB (9%)
Alignment                        : Split accross interleaves
Interleave, duration             : 40 ms (1.00 video frame)
Interleave, preload duration     : 500 ms



Video Source  MULTI DVD-R 2012 NYKOLA06... Thanks
Audio Source  MULTI DVD-R 2012 NYKOLA06... Thanks

Screenshots: 
 
http://bayimg.com/haMmpAAdb
 
http://bayimg.com/iaMmaaAdb
 
http://bayimg.com/iAMmbAAdB


Sample:


Comparison: http://www.check2pic.ru/compare/7475/3/


Russian external subtitles!

Russian external subtitles!

Russian external subtitles!